<svg xmlns="http://www.w3.org/2000/svg" width="95" height="12" viewBox="0 0 95 12" fill="none">
  <path d="M8.3325 8.29488V0.749883H10.6125V11.2499H7.3275L2.7225 3.71988H2.4675V11.2499H0.1875V0.749883H3.2625V0.764882H3.4725L8.0625 8.29488H8.3325Z" fill="white"/>
  <path d="M18.9075 2.83488H21.1875V11.2499H18.9075V10.0199H18.8025C18.2625 10.7699 17.4975 11.2499 15.9825 11.2499C12.4275 11.2499 12.3375 8.27988 12.3375 7.04988V2.83488H14.6025V7.04988C14.6025 7.70988 14.4525 9.29988 16.6425 9.29988C18.6075 9.29988 18.9075 8.03988 18.9075 6.89988V2.83488Z" fill="white"/>
  <path d="M26.0175 4.78488V7.76988V7.94988C26.0175 9.16488 26.5575 8.99988 28.7475 8.87988V11.0999C28.7475 11.0999 28.2975 11.2499 26.0175 11.2499C23.7225 11.2499 23.7225 9.37488 23.7225 8.15988V4.78488H22.6125V2.86488H23.7225V0.434883H26.0175V2.86488H28.7475V4.78488H26.0175Z" fill="white"/>
  <path d="M35.1694 2.83488C35.7694 2.83488 36.2644 2.96988 36.6544 3.05988L36.2944 5.20488C36.0844 5.14488 35.4994 5.02488 34.7794 5.02488C33.0844 5.02488 32.5894 6.34488 32.5894 7.48488V11.2499H30.3094V2.83488H32.5894V4.07988H32.7244C33.2044 3.26988 33.7144 2.83488 35.1694 2.83488Z" fill="white"/>
  <path d="M40.1394 11.2499H37.8744V2.89488H40.1394V11.2499ZM40.1394 2.29488H37.8744V0.254883H40.1394V2.29488Z" fill="white"/>
  <path d="M45.1091 4.78488V7.76988V7.94988C45.1091 9.16488 45.6491 8.99988 47.8391 8.87988V11.0999C47.8391 11.0999 47.3891 11.2499 45.1091 11.2499C42.8141 11.2499 42.8141 9.37488 42.8141 8.15988V4.78488H41.7041V2.86488H42.8141V0.434883H45.1091V2.86488H47.8391V4.78488H45.1091Z" fill="white"/>
  <path d="M51.622 11.2499H49.357V2.89488H51.622V11.2499ZM51.622 2.29488H49.357V0.254883H51.622V2.29488Z" fill="white"/>
  <path d="M57.8667 2.68488C60.4317 2.68488 62.5617 4.04988 62.5617 6.97488C62.5617 9.92988 60.4317 11.2499 57.8667 11.2499C55.3167 11.2499 53.1867 9.88488 53.1867 6.97488C53.1867 4.07988 55.3167 2.68488 57.8667 2.68488ZM57.8667 9.17988C59.3067 9.17988 60.3267 8.48988 60.3267 6.97488C60.3267 5.41488 59.3067 4.76988 57.8667 4.76988C56.4417 4.76988 55.4217 5.38488 55.4217 6.97488C55.4217 8.54988 56.4417 9.17988 57.8667 9.17988Z" fill="white"/>
  <path d="M69.2966 2.83488C72.8516 2.83488 72.9416 5.81988 72.9416 7.04988V11.2499H70.6766V7.04988C70.6766 6.38988 70.8116 4.79988 68.6366 4.79988C66.6566 4.79988 66.3716 6.05988 66.3716 7.19988V11.2499H64.0916V2.83488H66.3716V4.07988H66.4766C67.0166 3.32988 67.7816 2.83488 69.2966 2.83488Z" fill="white"/>
  <path d="M76.9246 11.2499H74.6596V2.89488H76.9246V11.2499ZM76.9246 2.29488H74.6596V0.254883H76.9246V2.29488Z" fill="white"/>
  <path d="M82.8128 6.14988C84.7178 6.43488 86.8778 6.76488 86.8778 8.75988C86.8778 10.8449 85.3778 11.2499 82.7978 11.2499C80.8928 11.2499 79.5878 10.9049 78.9128 10.2299C78.3278 9.64488 78.3278 8.93988 78.3428 8.50488V8.33988H80.6828V8.41488C80.6828 9.13488 81.2228 9.46488 82.7378 9.46488C83.6528 9.46488 84.5228 9.34488 84.5228 8.78988C84.5228 8.15988 83.7128 8.03988 82.7978 7.93488C82.6778 7.91988 82.5578 7.90488 82.4378 7.88988C80.0228 7.57488 78.5228 7.03488 78.5228 5.35488C78.5228 4.18488 79.1978 2.78988 82.4378 2.78988C85.9178 2.78988 86.6528 4.33488 86.6528 5.62488V5.69988H84.3278V5.62488C84.3278 4.96488 83.7578 4.60488 82.4378 4.60488C81.1628 4.60488 80.8928 5.06988 80.8928 5.32488C80.8928 5.69988 81.1478 5.90988 82.6178 6.13488L82.8128 6.14988Z" fill="white"/>
  <path d="M91.3343 4.78488V7.76988V7.94988C91.3343 9.16488 91.8743 8.99988 94.0643 8.87988V11.0999C94.0643 11.0999 93.6143 11.2499 91.3343 11.2499C89.0393 11.2499 89.0393 9.37488 89.0393 8.15988V4.78488H87.9293V2.86488H89.0393V0.434883H91.3343V2.86488H94.0643V4.78488H91.3343Z" fill="white"/>
</svg>